<mxfile host="65bd71144e">
    <diagram id="a8hSy89A0QcdgAGZcE6o" name="Page-1">
        <mxGraphModel dx="592" dy="470" grid="1" gridSize="10" guides="1" tooltips="1" connect="1" arrows="1" fold="1" page="1" pageScale="1" pageWidth="850" pageHeight="1100" background="#FFFFFF" math="0" shadow="0">
            <root>
                <mxCell id="0"/>
                <mxCell id="1" parent="0"/>
                <mxCell id="35" value="" style="group;fillColor=none;strokeColor=#000000;fontColor=#000000;" parent="1" vertex="1" connectable="0">
                    <mxGeometry x="137" y="107" width="536" height="550" as="geometry"/>
                </mxCell>
                <mxCell id="3" value="XECS" style="swimlane;childLayout=stackLayout;resizeParent=1;resizeParentMax=0;startSize=20;horizontal=0;horizontalStack=1;fillColor=none;strokeColor=#000000;fontColor=#000000;" parent="35" vertex="1">
                    <mxGeometry width="534" height="550" as="geometry"/>
                </mxCell>
                <mxCell id="4" value="Customer" style="swimlane;startSize=20;fillColor=none;strokeColor=#000000;fontColor=#000000;" parent="3" vertex="1">
                    <mxGeometry x="20" width="218" height="550" as="geometry"/>
                </mxCell>
                <mxCell id="7" value="Start" style="ellipse;whiteSpace=wrap;html=1;rotation=-90;fillColor=none;strokeColor=#000000;fontColor=#000000;" parent="4" vertex="1">
                    <mxGeometry x="-5" y="245" width="68" height="30" as="geometry"/>
                </mxCell>
                <mxCell id="10" value="Enter Information" style="rounded=0;whiteSpace=wrap;html=1;rotation=-90;fillColor=none;strokeColor=#000000;fontColor=#000000;" parent="4" vertex="1">
                    <mxGeometry x="70" y="70" width="78" height="30" as="geometry"/>
                </mxCell>
                <mxCell id="11" value="Enter Question" style="rounded=0;whiteSpace=wrap;html=1;rotation=-90;fillColor=none;strokeColor=#000000;fontColor=#000000;" parent="4" vertex="1">
                    <mxGeometry x="70" y="320" width="78" height="40" as="geometry"/>
                </mxCell>
                <mxCell id="18" style="edgeStyle=orthogonalEdgeStyle;html=1;exitX=1;exitY=0.5;exitDx=0;exitDy=0;entryX=0.75;entryY=0;entryDx=0;entryDy=0;fillColor=none;strokeColor=#000000;fontColor=#000000;" parent="4" source="16" target="10" edge="1">
                    <mxGeometry relative="1" as="geometry"/>
                </mxCell>
                <mxCell id="19" style="edgeStyle=orthogonalEdgeStyle;html=1;exitX=1;exitY=0.5;exitDx=0;exitDy=0;entryX=0.25;entryY=0;entryDx=0;entryDy=0;fillColor=none;strokeColor=#000000;fontColor=#000000;" parent="4" source="16" target="11" edge="1">
                    <mxGeometry relative="1" as="geometry"/>
                </mxCell>
                <mxCell id="16" value="" style="rhombus;whiteSpace=wrap;html=1;fillColor=none;strokeColor=#000000;fontColor=#000000;" parent="4" vertex="1">
                    <mxGeometry x="45" y="250" width="18" height="20" as="geometry"/>
                </mxCell>
                <mxCell id="29" value="Display Response" style="rounded=0;whiteSpace=wrap;html=1;rotation=-90;fillColor=none;strokeColor=#000000;fontColor=#000000;" parent="4" vertex="1">
                    <mxGeometry x="65" y="450" width="78" height="40" as="geometry"/>
                </mxCell>
                <mxCell id="5" value="Chatbot" style="swimlane;startSize=20;fillColor=none;strokeColor=#000000;fontColor=#000000;" parent="3" vertex="1">
                    <mxGeometry x="238" width="148" height="550" as="geometry"/>
                </mxCell>
                <mxCell id="24" value="Response Selector" style="rounded=0;whiteSpace=wrap;html=1;rotation=-90;fillColor=none;strokeColor=#000000;fontColor=#000000;" parent="5" vertex="1">
                    <mxGeometry x="10" y="200" width="78" height="30" as="geometry"/>
                </mxCell>
                <mxCell id="27" value="Response Generator" style="rounded=0;whiteSpace=wrap;html=1;rotation=-90;fillColor=none;strokeColor=#000000;fontColor=#000000;" parent="5" vertex="1">
                    <mxGeometry x="10" y="380" width="78" height="30" as="geometry"/>
                </mxCell>
                <mxCell id="28" value="Within Scope" style="text;html=1;align=center;verticalAlign=middle;resizable=0;points=[];autosize=1;strokeColor=#000000;fillColor=none;rotation=-90;fontColor=#000000;" parent="5" vertex="1">
                    <mxGeometry y="295" width="90" height="30" as="geometry"/>
                </mxCell>
                <mxCell id="34" value="Out of scope" style="text;html=1;align=center;verticalAlign=middle;resizable=0;points=[];autosize=1;strokeColor=#000000;fillColor=none;fontColor=#000000;" parent="5" vertex="1">
                    <mxGeometry x="60" y="190" width="90" height="30" as="geometry"/>
                </mxCell>
                <mxCell id="25" style="edgeStyle=orthogonalEdgeStyle;html=1;exitX=0.5;exitY=1;exitDx=0;exitDy=0;entryX=0.5;entryY=0;entryDx=0;entryDy=0;fillColor=none;strokeColor=#000000;fontColor=#000000;" parent="3" source="11" target="24" edge="1">
                    <mxGeometry relative="1" as="geometry"/>
                </mxCell>
                <mxCell id="30" style="edgeStyle=orthogonalEdgeStyle;html=1;exitX=0.5;exitY=0;exitDx=0;exitDy=0;entryX=0.5;entryY=1;entryDx=0;entryDy=0;fillColor=none;strokeColor=#000000;fontColor=#000000;" parent="3" source="27" target="29" edge="1">
                    <mxGeometry relative="1" as="geometry"/>
                </mxCell>
                <mxCell id="6" value="Database" style="swimlane;startSize=20;fillColor=none;strokeColor=#000000;fontColor=#000000;" parent="3" vertex="1">
                    <mxGeometry x="386" width="148" height="550" as="geometry"/>
                </mxCell>
                <mxCell id="22" value="Store In Database" style="rounded=0;whiteSpace=wrap;html=1;rotation=-90;fillColor=none;strokeColor=#000000;fontColor=#000000;" parent="6" vertex="1">
                    <mxGeometry x="20" y="70" width="78" height="30" as="geometry"/>
                </mxCell>
                <mxCell id="32" value="store query for future use" style="rounded=0;whiteSpace=wrap;html=1;rotation=-90;fillColor=none;strokeColor=#000000;fontColor=#000000;" parent="6" vertex="1">
                    <mxGeometry x="10" y="200" width="78" height="30" as="geometry"/>
                </mxCell>
                <mxCell id="8" value="End" style="ellipse;whiteSpace=wrap;html=1;rotation=-94;fillColor=none;strokeColor=#000000;fontColor=#000000;" parent="6" vertex="1">
                    <mxGeometry x="30" y="470" width="68" height="40" as="geometry"/>
                </mxCell>
                <mxCell id="31" style="edgeStyle=orthogonalEdgeStyle;html=1;exitX=0.5;exitY=1;exitDx=0;exitDy=0;entryX=0.5;entryY=0;entryDx=0;entryDy=0;fillColor=none;strokeColor=#000000;fontColor=#000000;" parent="3" source="24" target="32" edge="1">
                    <mxGeometry relative="1" as="geometry">
                        <mxPoint x="330" y="215" as="targetPoint"/>
                    </mxGeometry>
                </mxCell>
                <mxCell id="20" style="edgeStyle=orthogonalEdgeStyle;html=1;exitX=0.5;exitY=1;exitDx=0;exitDy=0;entryX=0.5;entryY=0;entryDx=0;entryDy=0;fillColor=none;strokeColor=#000000;fontColor=#000000;" parent="3" source="10" target="22" edge="1">
                    <mxGeometry relative="1" as="geometry">
                        <mxPoint x="410" y="85" as="targetPoint"/>
                    </mxGeometry>
                </mxCell>
                <mxCell id="26" style="edgeStyle=orthogonalEdgeStyle;html=1;exitX=0;exitY=0.5;exitDx=0;exitDy=0;fillColor=none;strokeColor=#000000;fontColor=#000000;" parent="35" source="24" edge="1">
                    <mxGeometry relative="1" as="geometry">
                        <mxPoint x="290" y="360" as="targetPoint"/>
                    </mxGeometry>
                </mxCell>
                <mxCell id="33" style="edgeStyle=orthogonalEdgeStyle;html=1;exitX=0.25;exitY=1;exitDx=0;exitDy=0;fillColor=none;strokeColor=#000000;fontColor=#000000;" parent="35" source="29" edge="1">
                    <mxGeometry relative="1" as="geometry">
                        <mxPoint x="440" y="490" as="targetPoint"/>
                    </mxGeometry>
                </mxCell>
            </root>
        </mxGraphModel>
    </diagram>
</mxfile>